<?xml version="1.0" standalone="no"?>
<!DOCTYPE svg PUBLIC "-//W3C//DTD SVG 20010904//EN"
 "http://www.w3.org/TR/2001/REC-SVG-20010904/DTD/svg10.dtd">
<svg version="1.0" xmlns="http://www.w3.org/2000/svg"
 width="1280.000000pt" height="1280.000000pt" viewBox="0 0 1280.000000 1280.000000"
 preserveAspectRatio="xMidYMid meet">
<metadata>
Created by potrace 1.14, written by Peter Selinger 2001-2017
</metadata>
<g transform="translate(0.000000,1280.000000) scale(0.100000,-0.100000)"
fill="#000000" stroke="none">
<path d="M4823 10855 c-121 -41 -131 -49 -374 -286 -90 -88 -175 -168 -188
-177 -23 -15 -165 -17 -1825 -18 -991 0 -1817 -4 -1836 -8 -150 -30 -296 -107
-390 -206 -64 -66 -90 -99 -90 -110 0 -6 -3 -10 -8 -10 -6 0 -63 -111 -68
-130 0 -3 -4 -12 -7 -20 -36 -78 -35 -56 -36 -3362 -1 -2353 2 -3231 10 -3270
17 -81 47 -136 108 -198 54 -55 133 -104 182 -114 13 -2 32 -7 42 -11 10 -4
406 -8 880 -9 l861 -1 11 -55 c58 -284 250 -564 509 -738 71 -48 172 -102 190
-102 9 0 16 -5 16 -10 0 -6 3 -9 8 -8 4 1 33 -8 65 -20 33 -12 69 -24 80 -26
12 -3 22 -5 22 -6 0 -3 31 -9 130 -24 120 -19 333 -15 430 7 17 4 39 9 51 11
87 17 316 112 336 141 4 5 8 7 8 2 0 -7 80 48 154 105 78 61 197 196 260 295
41 66 86 153 80 153 -4 0 0 10 8 23 14 20 58 151 64 187 2 8 5 24 8 35 2 11 5
23 5 26 2 11 4531 7 4538 -4 3 -5 7 -21 9 -36 4 -37 9 -54 16 -66 3 -5 9 -26
13 -45 12 -57 112 -270 127 -270 5 0 8 -6 8 -14 0 -8 6 -21 13 -28 7 -7 26
-31 42 -53 31 -42 189 -203 216 -220 9 -5 54 -36 101 -67 47 -32 88 -58 91
-58 3 0 34 -13 69 -29 59 -28 139 -58 177 -66 132 -32 174 -37 296 -40 77 -2
165 1 196 6 31 5 72 11 90 13 19 3 34 5 34 6 0 1 10 3 22 6 43 8 176 57 244
90 38 19 74 34 78 34 5 0 11 4 13 8 2 5 35 29 73 54 68 44 199 165 259 238
108 133 201 326 237 491 l11 56 427 0 c234 0 448 3 474 7 188 26 347 169 396
356 8 33 8 1934 0 1980 -28 149 -65 245 -146 372 -48 75 -173 207 -249 261
-47 33 -194 116 -211 118 -10 2 -32 10 -143 54 -47 18 -148 57 -225 87 -77 30
-149 59 -160 63 -11 5 -22 9 -25 9 -27 7 -158 61 -166 70 -7 6 -65 133 -129
281 -64 149 -130 298 -146 333 -16 35 -29 69 -29 76 0 6 -4 16 -9 22 -5 5 -23
43 -41 84 -36 84 -61 139 -96 218 -13 29 -24 55 -24 57 0 3 -13 32 -29 65 -16
33 -27 60 -25 60 2 0 -5 17 -16 38 -22 43 -42 91 -46 112 -2 8 -8 16 -13 18
-6 2 -11 9 -11 16 0 11 -30 84 -70 171 -10 22 -86 194 -103 235 -5 14 -10 28
-9 33 1 4 -3 7 -8 7 -5 0 -9 3 -8 8 4 11 -42 100 -86 167 -21 33 -72 92 -111
131 -126 125 -249 195 -420 239 -5 1 -12 3 -15 5 -43 18 -187 23 -845 25 -412
2 -754 4 -758 4 -4 1 -6 61 -5 133 l3 133 1390 1 c1488 1 1425 -2 1529 51 54
28 166 134 166 158 0 8 4 15 8 15 15 0 52 126 56 194 5 72 -40 199 -102 286
-15 21 -33 46 -40 56 -7 11 -46 68 -87 127 -41 60 -75 113 -75 118 0 5 -4 9
-8 9 -5 0 -18 17 -29 38 -12 20 -33 51 -47 67 -14 17 -26 36 -26 43 0 6 -4 12
-10 12 -5 0 -10 6 -10 14 0 8 -4 16 -8 18 -4 2 -41 53 -81 113 -41 61 -87 126
-103 146 -15 20 -28 40 -28 43 0 6 -65 97 -99 139 -28 34 -95 95 -132 120 -50
34 -148 87 -168 91 -9 2 -23 6 -31 9 -8 3 -28 9 -45 13 -16 4 -37 10 -45 13
-8 3 -1248 6 -2755 8 l-2740 2 -72 -24z m5524 -383 c91 -30 139 -74 236 -217
136 -201 266 -390 277 -402 6 -7 7 -13 3 -13 -4 0 -3 -4 3 -8 6 -4 55 -72 109
-152 54 -80 117 -172 140 -205 37 -53 47 -86 32 -102 -3 -2 -674 -5 -1492 -5
-1616 0 -1520 4 -1585 -54 -16 -15 -37 -43 -46 -63 -17 -34 -18 -200 -18
-2981 l-1 -2945 -1725 -2 c-949 -1 -1735 0 -1747 3 -13 2 -22 8 -21 12 6 22
-49 209 -75 257 -6 11 -12 25 -13 30 -1 6 -11 26 -23 45 -11 19 -24 42 -28 50
-7 17 -64 102 -72 110 -4 3 -18 21 -33 41 -30 41 -82 94 -150 154 -79 70 -98
85 -98 77 0 -4 -6 0 -13 8 -12 15 -28 24 -142 84 -54 29 -144 67 -170 72 -5 1
-44 11 -85 22 -109 30 -160 36 -305 35 -155 -1 -213 -6 -291 -28 -33 -9 -68
-18 -79 -21 -33 -8 -39 -10 -70 -23 -256 -99 -433 -238 -598 -467 -20 -28 -34
-54 -30 -58 3 -3 2 -6 -4 -6 -6 0 -16 -15 -24 -32 -7 -18 -16 -35 -20 -38 -11
-9 -76 -192 -90 -255 -7 -33 -17 -63 -22 -66 -5 -4 -380 -7 -833 -7 -612 0
-826 3 -831 11 -5 7 -8 209 -9 449 l0 437 147 -1 c81 0 152 3 157 6 7 4 10 77
9 198 l-2 192 -155 0 -155 1 -1 2535 c-1 2647 -2 2585 40 2665 37 71 133 142
216 160 19 4 842 8 1830 8 987 -1 1800 2 1805 5 6 4 17 7 25 9 39 5 100 27
100 34 0 5 4 8 8 7 5 -2 32 12 59 30 49 31 98 76 324 298 58 57 115 107 128
112 35 13 5369 8 5408 -6z m-433 -2171 c26 -6 61 -18 77 -27 16 -8 29 -12 29
-9 0 2 23 -9 52 -27 80 -50 151 -130 197 -223 23 -46 41 -86 41 -89 0 -3 14
-36 31 -73 17 -37 35 -77 39 -88 5 -11 18 -41 29 -66 12 -25 21 -51 21 -57 0
-7 5 -12 10 -12 6 0 10 -7 10 -15 0 -8 11 -38 24 -67 14 -29 31 -69 40 -88 8
-19 25 -58 37 -85 12 -28 23 -52 24 -55 1 -5 11 -28 66 -148 16 -35 29 -66 29
-69 0 -3 12 -31 26 -62 14 -31 32 -71 40 -88 8 -18 22 -50 31 -70 10 -21 18
-40 18 -43 3 -9 25 -61 49 -113 25 -54 166 -377 166 -380 0 -1 -583 -2 -1295
-2 l-1295 0 0 981 c0 539 2 983 4 985 2 2 330 3 728 3 499 -1 738 -5 772 -13z
m1424 -2376 c37 -15 78 -32 92 -38 14 -5 31 -11 38 -13 7 -1 33 -12 58 -23 24
-12 48 -21 54 -21 6 0 18 -4 28 -10 9 -5 70 -30 135 -55 235 -91 352 -138 357
-144 3 -3 16 -12 30 -19 65 -33 173 -155 209 -236 51 -111 55 -144 55 -456 l1
-295 -150 -2 c-82 -1 -153 -2 -156 -2 -4 -1 -6 -89 -5 -197 l1 -196 155 -1
155 -2 1 -415 c0 -244 -3 -424 -9 -437 -5 -12 -21 -26 -36 -32 -16 -6 -181
-10 -441 -9 l-415 0 -17 67 c-10 36 -20 75 -23 86 -8 32 -25 76 -58 145 -17
36 -30 68 -29 73 1 4 -3 7 -8 7 -6 0 -10 5 -10 10 0 24 -111 169 -192 251 -48
49 -90 89 -93 89 -4 0 -13 7 -22 15 -18 19 -149 105 -158 105 -4 0 -21 10 -38
22 -18 13 -33 22 -35 20 -1 -1 -22 6 -47 17 -50 22 -194 68 -240 76 -88 16
-143 20 -270 19 -127 -1 -167 -6 -315 -39 -40 -9 -151 -51 -205 -78 -61 -30
-176 -96 -185 -106 -3 -4 -30 -25 -60 -48 -61 -46 -147 -133 -200 -203 -19
-25 -38 -46 -42 -48 -5 -2 -8 -10 -8 -17 0 -8 -6 -20 -14 -27 -15 -16 -67
-114 -65 -124 0 -4 -4 -10 -9 -13 -17 -11 -101 -269 -94 -292 1 -4 -145 -7
-323 -7 l-325 0 0 1314 0 1313 23 3 c12 2 656 2 1430 1 l1409 -2 66 -26z
m-7898 -2001 c14 -3 30 -6 35 -8 6 -1 26 -6 45 -10 49 -11 138 -46 182 -73 21
-13 42 -23 48 -23 5 0 10 -4 10 -8 0 -5 11 -14 23 -19 39 -18 145 -122 192
-188 40 -55 104 -172 110 -199 1 -6 5 -18 8 -26 26 -67 35 -145 33 -265 -3
-109 -8 -144 -31 -214 -44 -136 -92 -216 -194 -324 -59 -62 -207 -167 -235
-167 -9 0 -16 -4 -16 -8 0 -13 -176 -65 -231 -67 -26 -2 -51 -5 -56 -7 -8 -5
-148 -3 -148 1 0 1 -20 4 -44 6 -56 5 -142 30 -209 61 -29 13 -57 24 -62 24
-6 0 -10 5 -10 10 0 6 -5 10 -11 10 -18 0 -140 94 -185 142 -22 24 -57 66 -77
94 -37 51 -103 185 -110 221 -2 10 -7 25 -10 33 -23 58 -31 271 -12 356 24
112 88 257 141 324 151 188 354 304 569 327 28 3 51 6 53 8 5 4 163 -5 192
-11z m6965 0 c22 -3 48 -7 58 -7 9 -1 17 -5 17 -10 0 -4 4 -6 9 -2 9 5 20 2
99 -31 122 -51 185 -92 270 -174 219 -210 298 -518 209 -816 -18 -62 -80 -186
-101 -203 -9 -8 -16 -17 -16 -22 0 -31 -204 -219 -238 -219 -5 0 -12 -4 -14
-8 -1 -5 -32 -22 -68 -39 -56 -26 -77 -34 -135 -49 -110 -28 -256 -37 -345
-20 -144 27 -237 63 -339 130 -230 153 -361 389 -364 655 -1 112 4 152 29 239
17 60 64 165 76 170 4 2 8 9 8 17 0 25 123 165 203 230 12 10 93 60 135 83 30
17 149 59 187 67 17 3 55 9 85 12 30 3 56 6 58 8 5 4 132 -4 177 -11z"/>
<path d="M1471 8858 c-65 -10 -174 -52 -221 -87 -47 -34 -128 -120 -136 -143
-3 -10 -10 -18 -15 -18 -5 0 -9 -4 -9 -9 0 -5 -8 -26 -17 -47 -21 -50 -21 -50
-32 -109 -10 -55 -8 -1308 1 -1340 44 -142 109 -236 216 -308 47 -32 151 -79
170 -76 4 1 9 0 12 -1 3 -1 14 -4 25 -6 30 -7 2605 -7 2638 0 15 3 38 8 51 11
125 26 263 140 330 270 49 97 52 142 50 822 -1 548 -3 633 -17 671 -9 23 -14
42 -12 42 3 0 -10 27 -28 59 -47 87 -134 175 -207 209 -19 10 -37 20 -40 23
-3 4 -36 14 -75 24 -66 17 -148 19 -1351 19 -704 1 -1304 -2 -1333 -6z m401
-392 c15 10 108 10 108 1 0 -5 4 -5 10 -2 15 9 350 11 350 2 0 -5 5 -5 11 -1
16 9 109 11 109 1 0 -5 5 -5 10 -2 16 10 190 11 190 2 0 -5 5 -5 11 -1 16 9
109 11 109 1 0 -5 4 -5 10 -2 15 9 350 11 350 2 0 -5 5 -5 11 -1 16 9 109 11
109 1 0 -5 4 -5 10 -2 15 9 350 11 350 2 0 -5 5 -5 11 -1 16 9 109 11 109 1 0
-5 5 -5 10 -2 16 10 190 11 190 2 0 -5 6 -5 12 -1 12 8 56 7 89 -1 42 -10 57
-19 73 -49 16 -31 18 -78 18 -627 -1 -390 -4 -603 -11 -621 -6 -16 -25 -37
-42 -47 -30 -19 -70 -19 -1286 -19 -889 -1 -1263 2 -1282 10 -14 6 -29 11 -33
10 -3 -1 -14 15 -24 36 -17 34 -18 80 -19 622 -1 322 3 597 7 611 5 15 20 37
34 50 24 23 33 24 202 29 97 3 179 2 180 -3 2 -4 8 -4 14 -1z"/>
<path d="M5558 8858 c-136 -17 -269 -111 -337 -238 -58 -109 -54 30 -56 -2300
-1 -2315 -3 -2192 48 -2252 25 -28 76 -57 116 -65 45 -9 155 -9 174 -1 9 5 17
5 17 0 0 -8 58 -8 66 1 3 3 18 2 32 -3 15 -4 37 -3 50 1 13 5 21 5 18 1 -5 -9
118 -7 133 2 6 4 11 4 11 -1 0 -10 142 -9 158 1 7 4 12 3 12 -1 0 -10 53 -9
69 2 6 3 16 3 23 -1 16 -10 68 -11 68 -1 0 5 5 5 11 2 16 -11 69 -12 69 -2 0
4 5 5 11 2 16 -11 69 -12 75 -3 3 5 10 5 17 1 16 -10 57 -10 57 0 0 4 5 5 12
1 16 -10 68 -11 68 -1 0 5 5 5 11 2 16 -11 69 -12 69 -3 0 5 8 5 18 1 21 -10
53 -10 69 0 6 4 14 4 17 -1 5 -9 109 -8 125 2 6 4 11 3 11 -1 0 -9 57 -9 66 0
3 3 18 2 32 -3 15 -4 37 -3 50 1 13 5 21 5 18 1 -2 -4 26 -6 62 -4 76 3 95 3
137 0 74 -4 153 43 192 114 17 31 18 143 18 2203 l0 2170 -24 65 c-43 117
-115 204 -206 250 -17 8 -32 17 -35 20 -8 8 -78 31 -113 37 -50 8 -1375 9
-1439 1z m242 -388 c33 3 60 2 60 -3 0 -4 5 -5 11 -1 16 9 109 11 109 1 0 -5
4 -5 10 -2 15 9 350 11 350 2 0 -5 5 -5 11 -1 16 9 109 11 109 1 0 -5 4 -5 10
-2 15 9 350 11 350 2 0 -5 5 -5 12 -1 23 15 102 3 121 -17 18 -19 19 -53 18
-652 0 -348 0 -646 0 -664 l-1 -31 -700 -1 -700 0 -1 32 c0 46 0 1182 0 1243
1 74 16 88 98 94 37 3 69 3 71 0 1 -3 29 -3 62 0z m1171 -1794 c0 -39 0 -2245
-1 -2267 0 -14 -68 -16 -700 -16 l-700 0 0 26 c-1 33 -1 2227 0 2262 l0 26
700 0 700 0 1 -31z"/>
</g>
</svg>
