<svg width="18" height="18" viewBox="0 0 18 18" fill="none" xmlns="http://www.w3.org/2000/svg">
<path d="M9 16.5C13.1421 16.5 16.5 13.1421 16.5 9C16.5 4.85786 13.1421 1.5 9 1.5C4.85786 1.5 1.5 4.85786 1.5 9C1.5 13.1421 4.85786 16.5 9 16.5Z" stroke="#101828" stroke-width="1.5"/>
<path d="M4.4165 8.99999C4.4165 6.46874 6.46859 4.41666 8.99984 4.41666" stroke="#101828" stroke-width="1.5" stroke-linecap="round"/>
<path d="M8.99984 11.0833C10.1504 11.0833 11.0832 10.1506 11.0832 8.99999C11.0832 7.8494 10.1504 6.91666 8.99984 6.91666C7.84924 6.91666 6.9165 7.8494 6.9165 8.99999C6.9165 10.1506 7.84924 11.0833 8.99984 11.0833Z" stroke="#101828" stroke-width="1.5"/>
</svg>
