<svg width="18" height="18" viewBox="0 0 18 18" fill="none" xmlns="http://www.w3.org/2000/svg">
<path d="M0.666504 10.6667C0.666504 7.52417 0.666504 5.9525 1.64317 4.97667C2.619 4 4.19067 4 7.33317 4H10.6665C13.809 4 15.3807 4 16.3565 4.97667C17.3332 5.9525 17.3332 7.52417 17.3332 10.6667C17.3332 13.8092 17.3332 15.3808 16.3565 16.3567C15.3807 17.3333 13.809 17.3333 10.6665 17.3333H7.33317C4.19067 17.3333 2.619 17.3333 1.64317 16.3567C0.666504 15.3808 0.666504 13.8092 0.666504 10.6667Z" stroke="#101828" stroke-width="1.3"/>
<path d="M3.1665 8.16667C3.1665 7.72464 3.3421 7.30072 3.65466 6.98816C3.96722 6.6756 4.39114 6.5 4.83317 6.5H13.1665C13.6085 6.5 14.0325 6.6756 14.345 6.98816C14.6576 7.30072 14.8332 7.72464 14.8332 8.16667C14.8332 8.60869 14.6576 9.03262 14.345 9.34518C14.0325 9.65774 13.6085 9.83333 13.1665 9.83333H4.83317C4.39114 9.83333 3.96722 9.65774 3.65466 9.34518C3.3421 9.03262 3.1665 8.60869 3.1665 8.16667ZM6.49984 13.1667C6.49984 13.4982 6.36814 13.8161 6.13372 14.0505C5.8993 14.285 5.58136 14.4167 5.24984 14.4167C4.91832 14.4167 4.60037 14.285 4.36595 14.0505C4.13153 13.8161 3.99984 13.4982 3.99984 13.1667C3.99984 12.8351 4.13153 12.5172 4.36595 12.2828C4.60037 12.0484 4.91832 11.9167 5.24984 11.9167C5.58136 11.9167 5.8993 12.0484 6.13372 12.2828C6.36814 12.5172 6.49984 12.8351 6.49984 13.1667Z" stroke="#101828" stroke-width="1.3"/>
<path d="M11.4998 8.58332V9.83332M9.83317 13.1667H13.9998M4.4165 3.99999L11.4998 0.666656" stroke="#101828" stroke-width="1.3" stroke-linecap="round"/>
</svg>
